<svg xmlns="http://www.w3.org/2000/svg" xmlns:xlink="http://www.w3.org/1999/xlink" width="500" zoomAndPan="magnify" viewBox="0 0 375 374.999991" height="500" preserveAspectRatio="xMidYMid meet" version="1.0"><defs><g/><clipPath id="id1"><path d="M 104 14.011719 L 239 14.011719 L 239 69 L 104 69 Z M 104 14.011719 " clip-rule="nonzero"/></clipPath><clipPath id="id2"><path d="M 32.378906 94 L 83 94 L 83 177 L 32.378906 177 Z M 32.378906 94 " clip-rule="nonzero"/></clipPath><clipPath id="id3"><path d="M 275 194 L 323.582031 194 L 323.582031 211 L 275 211 Z M 275 194 " clip-rule="nonzero"/></clipPath><clipPath id="id4"><path d="M 60 222 L 259 222 L 259 293.667969 L 60 293.667969 Z M 60 222 " clip-rule="nonzero"/></clipPath><clipPath id="id5"><path d="M 196 132.304688 L 203 132.304688 L 203 149 L 196 149 Z M 196 132.304688 " clip-rule="nonzero"/></clipPath><clipPath id="id6"><path d="M 145.847656 149 L 227.949219 149 L 227.949219 196.445312 L 145.847656 196.445312 Z M 145.847656 149 " clip-rule="nonzero"/></clipPath></defs><path fill="#f19820" d="M 111.539062 120.867188 C 111.539062 120.867188 95.851562 151.933594 105.152344 167.523438 C 114.457031 183.113281 124.144531 212.25 149.738281 217.042969 C 175.335938 221.835938 218.4375 208.121094 231.867188 194.570312 C 245.296875 181.019531 259.996094 140.535156 231.480469 107.207031 C 202.96875 73.882812 162.839844 69.585938 111.539062 120.867188 Z M 111.539062 120.867188 " fill-opacity="1" fill-rule="nonzero"/><g clip-path="url(#id1)"><path fill="#ffffff" d="M 234.191406 14.417969 C 234.785156 14.417969 236.011719 15.15625 236.90625 16.054688 C 238.070312 17.21875 238.449219 18.160156 238.214844 19.328125 C 238.03125 20.230469 236.304688 23.390625 234.375 26.363281 C 232.445312 29.335938 226.332031 39.691406 220.792969 49.386719 C 214 61.277344 210.234375 67.238281 209.199219 67.71875 C 208.019531 68.261719 207.269531 68.195312 205.925781 67.421875 C 204.691406 66.710938 204.132812 65.804688 204.023438 64.3125 C 203.898438 62.671875 205.460938 59.359375 211.136719 49.277344 C 215.140625 42.167969 220.65625 32.539062 223.40625 27.890625 C 226.15625 23.234375 229.460938 18.300781 230.753906 16.925781 C 232.050781 15.550781 233.59375 14.417969 234.191406 14.417969 Z M 108.285156 18.34375 C 108.667969 18.34375 109.636719 18.652344 110.445312 19.027344 C 111.257812 19.40625 113.371094 22.265625 115.152344 25.410156 C 116.933594 28.542969 121.277344 35.671875 124.8125 41.257812 C 128.34375 46.835938 131.238281 51.84375 131.238281 52.386719 C 131.238281 52.929688 130.792969 54.03125 130.25 54.839844 C 129.542969 55.902344 128.621094 56.3125 126.96875 56.3125 C 125.144531 56.3125 124.359375 55.882812 123.101562 54.1875 C 122.238281 53.015625 119.210938 48.375 116.367188 43.875 C 113.535156 39.371094 109.6875 33.042969 107.820312 29.800781 C 105.957031 26.5625 104.433594 23.378906 104.4375 22.730469 C 104.445312 22.082031 105.160156 20.832031 106.027344 19.949219 C 106.898438 19.066406 107.914062 18.34375 108.285156 18.34375 Z M 108.285156 18.34375 " fill-opacity="1" fill-rule="nonzero"/></g><path fill="#ffffff" d="M 180.300781 80.953125 C 184.082031 81.136719 190.257812 81.878906 194.042969 82.597656 C 197.824219 83.324219 204.152344 85.027344 208.113281 86.386719 C 212.070312 87.75 218.550781 90.316406 222.507812 92.089844 C 226.46875 93.863281 232.207031 96.953125 235.269531 98.957031 C 238.332031 100.960938 242.285156 103.894531 244.066406 105.476562 C 245.847656 107.0625 249.046875 110.5625 251.1875 113.265625 C 253.324219 115.972656 256.027344 120.089844 257.199219 122.433594 C 258.371094 124.777344 260.113281 128.898438 261.074219 131.597656 C 262.035156 134.300781 263.4375 139.453125 264.1875 143.054688 C 265.222656 148.003906 265.558594 151.988281 265.558594 159.417969 C 265.558594 167.804688 265.320312 170.148438 263.921875 175.457031 C 263.019531 178.875 261.035156 184.183594 259.515625 187.242188 C 258 190.296875 255.386719 194.71875 253.71875 197.058594 C 252.050781 199.402344 248.765625 203.207031 246.414062 205.511719 C 244.066406 207.824219 240.085938 211.160156 237.566406 212.933594 C 235.046875 214.710938 230.773438 217.28125 228.078125 218.644531 C 225.375 220.011719 220.664062 222.015625 217.609375 223.101562 C 214.550781 224.1875 208.660156 225.738281 204.519531 226.558594 C 198.792969 227.683594 194.722656 228.03125 187.503906 228.023438 C 181.589844 228.019531 175.679688 227.605469 171.796875 226.917969 C 168.382812 226.316406 163.226562 225.078125 160.347656 224.167969 C 157.464844 223.257812 152.164062 221.09375 148.566406 219.355469 C 144.96875 217.621094 139.667969 214.433594 136.785156 212.273438 C 133.90625 210.113281 129.484375 206.171875 126.949219 203.523438 C 124.417969 200.871094 121.046875 196.777344 119.464844 194.441406 C 117.875 192.097656 115.480469 187.828125 114.132812 184.949219 C 112.789062 182.070312 111.042969 177.355469 110.257812 174.476562 C 109.214844 170.664062 108.730469 166.644531 108.496094 159.746094 C 108.3125 154.363281 108.476562 148.269531 108.875 145.671875 C 109.261719 143.152344 110.339844 138.4375 111.265625 135.199219 C 112.1875 131.957031 114.523438 126.066406 116.449219 122.105469 C 118.371094 118.144531 121.703125 112.546875 123.84375 109.667969 C 125.984375 106.785156 129.183594 102.839844 130.949219 100.902344 C 132.714844 98.964844 136.519531 95.613281 139.398438 93.449219 C 142.277344 91.296875 146.621094 88.535156 149.050781 87.324219 C 151.480469 86.105469 156.046875 84.363281 159.195312 83.453125 C 162.34375 82.542969 166.832031 81.53125 169.175781 81.210938 C 171.515625 80.886719 176.515625 80.769531 180.300781 80.953125 Z M 160.011719 91.984375 C 158.03125 92.625 154.941406 93.882812 153.140625 94.78125 C 151.339844 95.671875 148.101562 97.660156 145.941406 99.199219 C 143.78125 100.738281 140.175781 103.867188 137.9375 106.15625 C 135.695312 108.449219 132.355469 112.390625 130.511719 114.910156 C 128.671875 117.429688 125.734375 122.4375 123.988281 126.039062 C 122.238281 129.640625 120.085938 135.09375 119.203125 138.148438 C 118.320312 141.207031 117.296875 146.367188 116.933594 149.605469 C 116.53125 153.160156 116.480469 157.964844 116.800781 161.71875 C 117.09375 165.132812 117.828125 169.847656 118.425781 172.191406 C 119.019531 174.535156 120.804688 179.097656 122.375 182.339844 C 123.953125 185.578125 126.828125 190.292969 128.765625 192.8125 C 130.699219 195.332031 134.667969 199.457031 137.578125 201.976562 C 140.492188 204.496094 145.03125 207.804688 147.675781 209.328125 C 150.320312 210.855469 154.984375 213.117188 158.042969 214.363281 C 161.097656 215.605469 166.695312 217.277344 170.476562 218.066406 C 175.828125 219.195312 179.585938 219.507812 187.492188 219.523438 C 194.75 219.527344 199.128906 219.207031 202.871094 218.390625 C 205.75 217.761719 210.460938 216.496094 213.339844 215.59375 C 216.21875 214.683594 220.636719 212.902344 223.15625 211.640625 C 225.675781 210.375 229.503906 208.144531 231.664062 206.683594 C 233.824219 205.222656 237.464844 202.246094 239.753906 200.066406 C 242.042969 197.878906 245.179688 194.332031 246.710938 192.171875 C 248.246094 190.011719 250.570312 186.109375 251.875 183.496094 C 253.175781 180.882812 254.824219 176.617188 255.542969 174.003906 C 256.265625 171.390625 257.035156 166.75 257.265625 163.695312 C 257.5 160.527344 257.335938 155.164062 256.878906 151.257812 C 256.441406 147.472656 255.359375 141.875 254.484375 138.816406 C 253.609375 135.761719 251.769531 130.898438 250.402344 128.015625 C 249.03125 125.136719 246.511719 121.011719 244.800781 118.851562 C 243.085938 116.691406 240.605469 113.949219 239.289062 112.757812 C 237.972656 111.566406 235.425781 109.476562 233.628906 108.121094 C 231.828125 106.765625 228.4375 104.601562 226.101562 103.316406 C 223.757812 102.027344 218.902344 99.878906 215.304688 98.542969 C 211.703125 97.210938 207.289062 95.453125 205.488281 94.65625 C 203.6875 93.851562 200.304688 92.710938 197.960938 92.121094 C 195.621094 91.535156 190.761719 90.605469 187.164062 90.0625 C 183.566406 89.515625 178.851562 89.097656 176.695312 89.132812 C 174.535156 89.164062 170.707031 89.558594 168.1875 90.007812 C 165.667969 90.460938 161.988281 91.355469 160.003906 92.003906 Z M 310.039062 85.796875 C 310.304688 85.785156 311.273438 86.140625 312.191406 86.589844 C 313.105469 87.042969 314.015625 88 314.21875 88.71875 C 314.417969 89.4375 314.410156 90.6875 314.195312 91.5 C 313.9375 92.460938 312.277344 93.804688 309.382812 95.371094 C 306.957031 96.691406 297.308594 102.578125 287.953125 108.449219 C 278.59375 114.328125 270.277344 119.140625 269.464844 119.144531 C 268.652344 119.152344 267.402344 118.570312 266.683594 117.851562 C 265.964844 117.128906 265.367188 115.878906 265.363281 115.066406 C 265.355469 114.253906 265.722656 113.125 266.179688 112.539062 C 266.636719 111.964844 273.339844 107.519531 281.082031 102.660156 C 288.816406 97.8125 297.507812 92.417969 300.386719 90.683594 C 303.265625 88.949219 306.503906 87.140625 307.585938 86.675781 C 308.664062 86.203125 309.769531 85.8125 310.039062 85.796875 Z M 310.039062 85.796875 " fill-opacity="1" fill-rule="evenodd"/><g clip-path="url(#id2)"><path fill="#ffffff" d="M 45.4375 95.027344 C 46.726562 95.304688 52.492188 97.128906 58.25 99.085938 C 64.007812 101.039062 70.78125 103.429688 73.300781 104.390625 C 75.820312 105.351562 78.40625 106.640625 79.046875 107.25 C 79.6875 107.859375 80.199219 109.097656 80.171875 109.996094 C 80.152344 110.898438 79.628906 112.15625 79.007812 112.796875 C 78.386719 113.4375 77.214844 113.953125 76.410156 113.941406 C 75.597656 113.925781 70.296875 112.273438 64.628906 110.257812 C 58.964844 108.238281 51.671875 105.757812 48.433594 104.730469 C 45.195312 103.710938 41.96875 102.78125 41.261719 102.664062 C 40.554688 102.550781 39.527344 101.648438 38.96875 100.660156 C 38.054688 99.023438 38.0625 98.695312 39.054688 97.085938 C 39.65625 96.109375 40.808594 95.132812 41.621094 94.910156 C 42.433594 94.695312 44.148438 94.742188 45.4375 95.015625 Z M 77.554688 163.089844 C 78.8125 163.046875 80.507812 163.457031 81.316406 164 C 82.378906 164.707031 82.789062 165.632812 82.789062 167.28125 C 82.789062 168.949219 82.390625 169.816406 81.316406 170.476562 C 80.507812 170.972656 77.785156 171.570312 75.265625 171.792969 C 72.746094 172.015625 62.679688 173.152344 35.117188 176.445312 L 33.734375 175.136719 C 32.96875 174.410156 32.367188 173.027344 32.378906 172.027344 C 32.394531 171.039062 32.917969 169.695312 33.546875 169.046875 C 34.441406 168.125 37.359375 167.550781 47.125 166.371094 C 53.964844 165.546875 63.09375 164.492188 67.410156 164.019531 C 71.730469 163.554688 76.296875 163.136719 77.554688 163.089844 Z M 77.554688 163.089844 " fill-opacity="1" fill-rule="nonzero"/></g><g clip-path="url(#id3)"><path fill="#ffffff" d="M 282.308594 194.761719 C 284.332031 195.011719 290.996094 196.203125 297.113281 197.414062 C 303.230469 198.625 311.328125 200.347656 315.109375 201.25 C 319.554688 202.3125 322.28125 203.304688 322.824219 204.066406 C 323.289062 204.714844 323.585938 205.949219 323.480469 206.816406 C 323.375 207.679688 322.550781 208.957031 321.652344 209.65625 C 320.019531 210.917969 320 210.917969 307.910156 208.269531 C 301.25 206.808594 291.683594 204.882812 286.644531 204 C 279.765625 202.789062 277.269531 202.09375 276.648438 201.199219 C 276.191406 200.542969 275.824219 199.34375 275.832031 198.535156 C 275.839844 197.722656 276.464844 196.4375 277.230469 195.6875 C 278.449219 194.480469 279.089844 194.363281 282.304688 194.761719 Z M 282.308594 194.761719 " fill-opacity="1" fill-rule="nonzero"/></g><g clip-path="url(#id4)"><path fill="#ffffff" d="M 93.03125 222.589844 C 94.578125 222.589844 95.519531 223.023438 96.210938 224.0625 C 96.757812 224.875 97.195312 226.199219 97.195312 227.011719 C 97.1875 228 95.609375 229.9375 92.382812 232.902344 C 89.742188 235.332031 84.8125 239.574219 81.421875 242.320312 C 78.03125 245.070312 73.054688 248.835938 70.355469 250.683594 C 67.652344 252.527344 64.859375 254.035156 64.140625 254.019531 C 63.417969 254.007812 62.503906 253.777344 62.109375 253.515625 C 61.710938 253.253906 61.050781 252.371094 60.636719 251.566406 C 60.226562 250.753906 60.035156 249.503906 60.214844 248.785156 C 60.394531 248.0625 63.261719 245.464844 66.59375 243.015625 C 69.925781 240.5625 76.179688 235.597656 80.5 231.984375 C 84.820312 228.371094 88.910156 224.785156 89.597656 224.003906 C 90.402344 223.089844 91.605469 222.597656 93.03125 222.597656 Z M 231.015625 237.453125 C 231.738281 237.640625 232.660156 238.125 233.066406 238.539062 C 233.472656 238.949219 239.125 247.09375 245.625 256.632812 C 252.121094 266.175781 257.757812 274.9375 258.136719 276.109375 C 258.601562 277.542969 258.613281 278.660156 258.175781 279.542969 C 257.816406 280.265625 256.933594 281.148438 256.210938 281.507812 C 255.339844 281.949219 254.359375 281.949219 253.265625 281.507812 C 252.179688 281.070312 248.265625 275.871094 241.585938 265.960938 C 236.0625 257.769531 230.308594 249.300781 228.8125 247.140625 C 227.3125 244.980469 226.082031 242.472656 226.089844 241.574219 C 226.089844 240.671875 226.46875 239.453125 226.921875 238.871094 C 227.378906 238.28125 228.191406 237.648438 228.734375 237.457031 C 229.269531 237.269531 230.304688 237.269531 231.023438 237.453125 Z M 155.234375 252.699219 C 155.882812 252.691406 156.9375 253.058594 157.585938 253.515625 C 158.226562 253.976562 159.015625 255.527344 159.332031 256.964844 C 159.664062 258.492188 159.652344 262.457031 159.304688 266.457031 C 158.972656 270.242188 158.257812 275.542969 157.707031 278.242188 C 157.164062 280.945312 156.066406 285.0625 155.273438 287.40625 C 154.480469 289.75 153.433594 292.027344 152.945312 292.480469 C 152.460938 292.933594 151.269531 293.292969 150.308594 293.277344 C 149.34375 293.273438 148.03125 292.753906 147.386719 292.132812 C 146.746094 291.511719 146.230469 290.492188 146.242188 289.863281 C 146.257812 289.234375 147.121094 285.402344 148.167969 281.351562 C 149.214844 277.300781 150.390625 270.820312 150.785156 266.949219 C 151.175781 263.082031 151.308594 259.101562 151.074219 258.113281 C 150.738281 256.710938 151.027344 255.914062 152.347656 254.511719 C 153.285156 253.523438 154.582031 252.703125 155.226562 252.699219 Z M 155.234375 252.699219 " fill-opacity="1" fill-rule="nonzero"/></g><path fill="#ffffff" d="M 166.960938 135.210938 C 166.570312 137.265625 166.820312 139.566406 166.851562 141.675781 C 166.878906 143.894531 166.960938 146.058594 167.15625 148.25 C 167.351562 150.363281 170.992188 150.664062 171.4375 148.554688 C 171.964844 146.167969 172.214844 143.949219 172.160156 141.539062 C 172.078125 139.183594 171.992188 136.632812 171.078125 134.441406 C 170.714844 133.59375 169.601562 133.128906 168.742188 133.292969 C 167.710938 133.484375 167.15625 134.277344 166.960938 135.210938 Z M 166.960938 135.210938 " fill-opacity="1" fill-rule="nonzero"/><g clip-path="url(#id5)"><path fill="#ffffff" d="M 197.1875 134.496094 C 196.351562 136.140625 196.683594 138.578125 196.769531 140.386719 C 196.851562 142.496094 197.101562 144.445312 197.660156 146.472656 C 198.410156 149.238281 201.96875 148.828125 202.523438 146.195312 C 202.996094 144.003906 203.023438 142.003906 202.773438 139.785156 C 202.550781 137.785156 202.355469 135.402344 201.050781 133.757812 C 199.882812 132.304688 197.878906 133.101562 197.1875 134.496094 Z M 197.1875 134.496094 " fill-opacity="1" fill-rule="nonzero"/></g><g clip-path="url(#id6)"><path fill="#ffffff" d="M 145.996094 169.265625 C 145.914062 173.40625 148.027344 177.296875 150.359375 180.609375 C 152.667969 183.871094 155.617188 186.71875 158.925781 188.996094 C 165.238281 193.324219 172.96875 195.789062 180.640625 196.117188 C 188.425781 196.445312 196.40625 194.859375 203.246094 191.132812 C 210.058594 187.433594 215.816406 181.980469 220.015625 175.515625 C 222.320312 171.953125 224.183594 168.0625 225.492188 164.035156 C 226.1875 161.953125 226.742188 159.785156 227.105469 157.621094 C 227.4375 155.484375 227.882812 153.046875 227.1875 150.964844 C 226.519531 148.992188 224.074219 148.71875 223.128906 150.664062 C 222.378906 152.226562 222.292969 153.949219 221.933594 155.648438 C 221.570312 157.320312 221.183594 158.992188 220.679688 160.636719 C 219.734375 163.789062 218.457031 166.855469 216.816406 169.707031 C 213.507812 175.488281 208.949219 180.664062 203.273438 184.335938 C 192.042969 191.570312 176.859375 192.554688 164.847656 186.472656 C 161.34375 184.691406 158.089844 182.308594 155.421875 179.488281 C 152.390625 176.28125 150.667969 172.554688 148.582031 168.746094 C 147.96875 167.679688 146.023438 167.871094 145.996094 169.265625 Z M 145.996094 169.265625 " fill-opacity="1" fill-rule="nonzero"/></g><g fill="#ffffff" fill-opacity="1"><g transform="translate(57.094105, 352.521593)"><g><path d="M 16.839844 -20.257812 C 14.714844 -22.320312 11.824219 -23.367188 8.714844 -23.277344 L 8.4375 -23.246094 L 8.375 -23.429688 C 8.035156 -23.367188 7.726562 -23.304688 7.390625 -23.246094 C 6.433594 -23.03125 5.449219 -22.8125 4.527344 -22.535156 C 2.800781 -21.984375 2.492188 -21.519531 2.433594 -19.644531 C 2.402344 -17.886719 2.371094 -16.101562 2.371094 -14.316406 C 2.308594 -11.730469 2.277344 -9.144531 2.214844 -6.527344 C 2.214844 -5.878906 1.96875 -5.140625 1.601562 -4.527344 C 1.171875 -3.785156 1.015625 -2.988281 1.199219 -2.277344 C 1.355469 -1.691406 1.722656 -1.199219 2.277344 -0.894531 C 3.140625 -0.398438 4.1875 -0.125 5.078125 -0.183594 C 9.082031 -0.371094 12.839844 -1.691406 16.195312 -4.1875 C 18.84375 -6.125 20.195312 -8.773438 20.195312 -12.128906 C 20.195312 -15.238281 18.964844 -18.195312 16.839844 -20.257812 Z M 12.347656 -8.898438 C 11.390625 -8.3125 10.40625 -7.820312 9.328125 -7.296875 C 8.835938 -7.050781 8.3125 -6.804688 7.789062 -6.527344 L 7.328125 -6.3125 L 6.773438 -18.6875 L 7.171875 -18.625 C 7.449219 -18.597656 7.757812 -18.566406 8.035156 -18.535156 C 9.453125 -18.351562 10.898438 -18.195312 12.191406 -17.394531 C 13.667969 -16.503906 14.5625 -14.902344 14.59375 -13.117188 C 14.59375 -11.359375 13.761719 -9.789062 12.347656 -8.898438 Z M 12.347656 -8.898438 "/></g></g></g><g fill="#ffffff" fill-opacity="1"><g transform="translate(81.570511, 352.521593)"><g><path d="M 23.523438 -5.019531 C 23.429688 -5.449219 23.335938 -5.972656 23.183594 -6.464844 C 21.488281 -12.253906 18.566406 -17.488281 15.703125 -22.320312 C 14.992188 -23.523438 14.070312 -24.105469 13.023438 -24.105469 C 12.40625 -24.105469 11.761719 -23.921875 11.054688 -23.523438 C 10.191406 -23 9.453125 -22.351562 9.019531 -21.707031 C 8.097656 -20.382812 7.328125 -18.902344 6.710938 -17.609375 C 5.601562 -15.300781 4.742188 -13.363281 4.003906 -11.515625 C 2.863281 -8.652344 2 -6.21875 1.261719 -3.910156 C 0.832031 -2.617188 1.507812 -1.570312 2.308594 -1.199219 C 3.292969 -0.800781 4.25 -1.230469 4.957031 -2.402344 C 5.296875 -2.988281 5.601562 -3.601562 5.910156 -4.21875 C 6.1875 -4.773438 6.496094 -5.386719 6.835938 -5.941406 C 7.050781 -6.34375 7.636719 -6.742188 8.066406 -6.742188 C 9.667969 -6.710938 11.269531 -6.648438 12.839844 -6.589844 C 14.007812 -6.527344 15.210938 -6.496094 16.378906 -6.433594 C 17.457031 -6.402344 17.765625 -5.789062 17.949219 -5.140625 C 18.195312 -4.21875 18.472656 -3.511719 18.8125 -2.925781 C 19.457031 -1.816406 20.628906 -1.355469 21.765625 -1.691406 C 22.9375 -2.0625 23.613281 -3.140625 23.613281 -4.648438 C 23.582031 -4.773438 23.554688 -4.894531 23.523438 -5.019531 Z M 9.882812 -11.945312 L 12.347656 -18.6875 L 15.640625 -11.945312 Z M 9.882812 -11.945312 "/></g></g></g><g fill="#ffffff" fill-opacity="1"><g transform="translate(109.464388, 352.521593)"><g><path d="M 7.296875 -18.257812 C 7.234375 -19.367188 7.050781 -20.320312 6.773438 -21.152344 C 6.433594 -22.257812 5.632812 -22.90625 4.464844 -22.9375 C 3.355469 -23 2.371094 -22.320312 2 -21.214844 C 1.722656 -20.382812 1.539062 -19.457031 1.445312 -18.503906 C 1.324219 -16.964844 1.261719 -15.425781 1.199219 -13.886719 C 1.171875 -13.394531 1.140625 -12.871094 1.140625 -12.375 L 1.261719 -12.375 L 1.261719 -12.039062 C 1.261719 -11.359375 1.261719 -10.683594 1.230469 -10.007812 C 1.230469 -8.4375 1.199219 -6.773438 1.292969 -5.171875 C 1.355469 -4.003906 1.691406 -2.832031 2.1875 -1.910156 C 2.585938 -1.199219 3.261719 -0.769531 3.972656 -0.769531 C 4.003906 -0.769531 4.003906 -0.769531 4.003906 -0.769531 C 4.773438 -0.769531 5.511719 -1.230469 5.941406 -2.03125 C 6.21875 -2.523438 6.402344 -2.988281 6.433594 -3.417969 L 6.648438 -5.234375 C 7.113281 -9.484375 7.605469 -13.886719 7.296875 -18.257812 Z M 7.296875 -18.257812 "/></g></g></g><g fill="#ffffff" fill-opacity="1"><g transform="translate(121.163815, 352.521593)"><g><path d="M 14.777344 -4.496094 C 14.53125 -5.109375 13.945312 -5.574219 13.207031 -5.726562 C 12.777344 -5.820312 12.285156 -5.851562 11.699219 -5.789062 C 11.238281 -5.757812 10.746094 -5.695312 10.28125 -5.632812 C 9.851562 -5.574219 9.421875 -5.511719 8.960938 -5.449219 C 8.34375 -5.386719 7.820312 -5.355469 7.480469 -5.664062 C 7.203125 -5.941406 7.113281 -6.375 7.113281 -7.050781 C 7.082031 -8.742188 7.082031 -10.5 7.082031 -12.347656 C 7.082031 -13.148438 7.113281 -14.007812 7.113281 -14.902344 C 7.082031 -15.515625 7.050781 -16.195312 7.019531 -16.902344 C 6.957031 -18.71875 6.898438 -20.78125 6.773438 -22.78125 C 6.679688 -23.984375 6.003906 -24.785156 4.988281 -24.875 C 4.925781 -24.875 4.863281 -24.875 4.832031 -24.875 C 3.910156 -24.875 3.234375 -24.230469 2.925781 -23.058594 C 2.523438 -21.460938 2.1875 -20.136719 2.0625 -18.75 L 1.941406 -17.703125 C 1.601562 -13.945312 1.230469 -10.035156 1.140625 -6.21875 C 1.078125 -4.402344 1.507812 -1.230469 4.894531 -0.0625 C 7.882812 0.953125 10.898438 0.277344 14.132812 -2.09375 C 14.222656 -2.15625 14.316406 -2.277344 14.410156 -2.402344 C 14.902344 -3.140625 15.023438 -3.878906 14.777344 -4.496094 Z M 14.777344 -4.496094 "/></g></g></g><g fill="#ffffff" fill-opacity="1"><g transform="translate(140.313922, 352.521593)"><g><path d="M 18.875 -23.058594 C 17.917969 -23.738281 16.65625 -23.523438 15.703125 -22.507812 C 15.394531 -22.167969 15.117188 -21.765625 14.839844 -21.367188 C 14.65625 -21.121094 14.5 -20.90625 14.316406 -20.691406 C 13.484375 -19.582031 12.625 -18.472656 11.730469 -17.304688 L 10.253906 -15.394531 L 9.976562 -15.824219 C 9.667969 -16.378906 9.359375 -16.902344 9.050781 -17.394531 C 8.375 -18.503906 7.757812 -19.550781 7.113281 -20.535156 L 7.019531 -20.660156 C 6.25 -21.828125 5.480469 -23.058594 4.554688 -24.105469 C 4.09375 -24.628906 3.511719 -24.847656 2.988281 -24.847656 C 2.617188 -24.847656 2.277344 -24.722656 2 -24.570312 C 1.261719 -24.105469 0.984375 -23.246094 1.199219 -22.105469 C 1.261719 -21.890625 1.292969 -21.644531 1.386719 -21.460938 C 1.632812 -20.875 1.847656 -20.289062 2.0625 -19.703125 C 2.585938 -18.289062 3.140625 -16.871094 3.785156 -15.515625 C 4.863281 -13.269531 6.375 -11.515625 8.21875 -10.3125 C 8.589844 -10.066406 8.804688 -9.453125 8.773438 -9.019531 C 8.742188 -8.21875 8.652344 -7.449219 8.589844 -6.648438 C 8.496094 -5.480469 8.375 -4.25 8.375 -3.015625 C 8.375 -1.96875 8.714844 -1.078125 9.328125 -0.460938 C 9.789062 0 10.375 0.214844 10.992188 0.214844 C 12.5 0.183594 13.484375 -1.140625 13.421875 -3.046875 C 13.394531 -5.140625 13.238281 -7.328125 12.960938 -9.761719 C 12.871094 -10.683594 13.023438 -11.300781 13.609375 -12.070312 C 15.363281 -14.378906 17.425781 -17.117188 19.335938 -20.011719 C 20.167969 -21.273438 19.671875 -22.476562 18.875 -23.058594 Z M 18.875 -23.058594 "/></g></g></g><g fill="#ffffff" fill-opacity="1"><g transform="translate(164.359291, 352.521593)"><g/></g></g><g fill="#ffffff" fill-opacity="1"><g transform="translate(176.305019, 352.521593)"><g><path d="M 23.058594 -22.011719 C 22.8125 -23.183594 21.984375 -24.015625 20.90625 -24.136719 C 19.734375 -24.292969 18.6875 -23.644531 18.257812 -22.566406 C 17.917969 -21.707031 17.703125 -20.78125 17.671875 -19.917969 C 17.550781 -17.550781 17.488281 -15.148438 17.425781 -12.808594 C 17.394531 -11.851562 17.363281 -10.898438 17.332031 -9.945312 C 17.332031 -9.699219 17.304688 -9.453125 17.304688 -9.207031 L 17.273438 -8.652344 L 16.472656 -8.34375 L 14.964844 -10.3125 C 13.945312 -11.605469 12.960938 -12.871094 11.976562 -14.164062 C 11.421875 -14.902344 10.867188 -15.671875 10.28125 -16.410156 C 9.296875 -17.734375 8.28125 -19.089844 7.234375 -20.382812 C 6.804688 -20.964844 6.21875 -21.460938 5.574219 -21.828125 C 5.140625 -22.074219 4.648438 -22.230469 4.1875 -22.230469 C 3.910156 -22.230469 3.632812 -22.167969 3.355469 -22.074219 C 2.617188 -21.828125 2.03125 -21.242188 1.691406 -20.441406 C 1.507812 -19.949219 1.386719 -19.488281 1.355469 -19.058594 C 0.921875 -14.101562 1.078125 -8.804688 1.847656 -2.402344 C 1.910156 -1.941406 2.09375 -1.417969 2.402344 -0.921875 C 2.738281 -0.371094 3.261719 -0.0625 3.757812 -0.09375 C 4.28125 -0.125 4.742188 -0.492188 5.050781 -1.078125 C 5.265625 -1.539062 5.417969 -2.0625 5.417969 -2.492188 C 5.542969 -5.078125 5.632812 -7.695312 5.726562 -10.222656 L 5.789062 -12.253906 C 5.820312 -12.46875 5.789062 -12.714844 5.789062 -12.929688 L 5.789062 -13.945312 L 6.34375 -13.546875 C 6.773438 -13.207031 7.050781 -12.839844 7.265625 -12.5 L 7.417969 -12.316406 C 7.851562 -11.699219 8.28125 -11.054688 8.742188 -10.4375 C 9.789062 -8.929688 10.898438 -7.359375 12.101562 -5.972656 C 13.117188 -4.773438 14.6875 -3.078125 16.53125 -2.03125 C 18.320312 -1.015625 19.859375 -0.800781 20.996094 -1.417969 C 22.136719 -2.0625 22.78125 -3.539062 22.875 -5.632812 C 23.03125 -9.605469 23.089844 -13.640625 23.183594 -17.550781 L 23.214844 -20.074219 C 23.246094 -20.75 23.183594 -21.398438 23.058594 -22.011719 Z M 23.058594 -22.011719 "/></g></g></g><g fill="#ffffff" fill-opacity="1"><g transform="translate(203.829424, 352.521593)"><g><path d="M 13.085938 -22.9375 C 12.929688 -22.96875 12.777344 -22.96875 12.59375 -22.96875 C 12.285156 -22.96875 11.945312 -22.9375 11.605469 -22.875 L 11.300781 -22.84375 C 6.527344 -22.230469 3.386719 -19.550781 1.691406 -14.65625 C 0.675781 -11.730469 1.015625 -8.066406 2.554688 -5.355469 C 3.941406 -2.957031 6.21875 -1.355469 9.113281 -0.769531 L 9.207031 -0.738281 C 9.667969 -0.648438 10.128906 -0.554688 10.589844 -0.492188 C 13.792969 -0.125 16.316406 -1.046875 18.289062 -3.386719 L 18.902344 -4.0625 C 19.394531 -4.648438 19.917969 -5.265625 20.414062 -5.851562 C 21.796875 -7.511719 22.566406 -9.574219 22.8125 -12.375 C 22.414062 -19.335938 18.625 -21.613281 13.085938 -22.9375 Z M 17.210938 -11.882812 C 17.085938 -11.605469 16.964844 -11.328125 16.839844 -11.023438 C 16.53125 -10.34375 16.226562 -9.667969 15.824219 -8.988281 C 15.546875 -8.527344 15.179688 -8.160156 14.839844 -7.789062 C 14.6875 -7.636719 14.53125 -7.480469 14.410156 -7.328125 C 13.546875 -6.402344 12.375 -5.878906 11.113281 -5.878906 C 10.804688 -5.878906 10.53125 -5.910156 10.222656 -5.972656 C 8.589844 -6.28125 7.265625 -7.417969 6.679688 -8.988281 C 5.820312 -11.390625 6.21875 -13.667969 7.914062 -16.195312 C 8.988281 -17.828125 10.191406 -18.101562 11.976562 -17.179688 C 12.652344 -16.839844 13.363281 -16.503906 14.253906 -16.164062 C 16.195312 -15.363281 16.996094 -14.285156 17.242188 -12.070312 L 17.242188 -11.976562 Z M 17.210938 -11.882812 "/></g></g></g><g fill="#ffffff" fill-opacity="1"><g transform="translate(230.922797, 352.521593)"><g><path d="M 17.457031 -22.660156 C 17.210938 -22.722656 16.964844 -22.78125 16.6875 -22.8125 C 15.640625 -22.9375 14.59375 -23 13.546875 -23 C 11.421875 -23 9.296875 -22.78125 7.234375 -22.535156 C 5.941406 -22.414062 4.617188 -22.257812 3.292969 -22.167969 C 3.261719 -22.167969 3.234375 -22.136719 3.171875 -22.136719 L 3.078125 -22.105469 C 1.785156 -21.738281 1.078125 -20.964844 1.140625 -19.890625 C 1.171875 -18.875 1.878906 -18.164062 3.171875 -17.855469 C 3.480469 -17.796875 3.785156 -17.765625 4.125 -17.734375 C 4.832031 -17.640625 5.542969 -17.578125 6.25 -17.519531 L 7.265625 -17.394531 L 7.296875 -16.871094 C 7.296875 -16.71875 7.296875 -16.59375 7.296875 -16.441406 C 7.296875 -15.363281 7.265625 -14.285156 7.234375 -13.207031 C 7.171875 -10.558594 7.144531 -7.851562 7.144531 -5.171875 C 7.144531 -4.21875 7.328125 -3.171875 7.695312 -2.214844 C 8.066406 -1.261719 8.898438 -0.707031 10.007812 -0.707031 C 11.082031 -0.707031 11.914062 -1.261719 12.285156 -2.277344 C 12.59375 -3.046875 12.746094 -3.878906 12.714844 -4.617188 C 12.652344 -6.648438 12.4375 -8.652344 12.253906 -10.34375 C 12.070312 -11.914062 11.851562 -13.484375 11.636719 -15.117188 C 11.515625 -15.855469 11.421875 -16.625 11.328125 -17.394531 L 11.269531 -17.765625 L 14.101562 -17.765625 C 14.410156 -17.765625 14.714844 -17.765625 15.023438 -17.734375 C 15.671875 -17.734375 16.378906 -17.734375 17.027344 -17.765625 C 18.351562 -17.886719 19.335938 -18.78125 19.457031 -20.011719 C 19.550781 -21.214844 18.78125 -22.257812 17.457031 -22.660156 Z M 17.457031 -22.660156 "/></g></g></g><g fill="#ffffff" fill-opacity="1"><g transform="translate(254.660299, 352.521593)"><g><path d="M 7.296875 -18.257812 C 7.234375 -19.367188 7.050781 -20.320312 6.773438 -21.152344 C 6.433594 -22.257812 5.632812 -22.90625 4.464844 -22.9375 C 3.355469 -23 2.371094 -22.320312 2 -21.214844 C 1.722656 -20.382812 1.539062 -19.457031 1.445312 -18.503906 C 1.324219 -16.964844 1.261719 -15.425781 1.199219 -13.886719 C 1.171875 -13.394531 1.140625 -12.871094 1.140625 -12.375 L 1.261719 -12.375 L 1.261719 -12.039062 C 1.261719 -11.359375 1.261719 -10.683594 1.230469 -10.007812 C 1.230469 -8.4375 1.199219 -6.773438 1.292969 -5.171875 C 1.355469 -4.003906 1.691406 -2.832031 2.1875 -1.910156 C 2.585938 -1.199219 3.261719 -0.769531 3.972656 -0.769531 C 4.003906 -0.769531 4.003906 -0.769531 4.003906 -0.769531 C 4.773438 -0.769531 5.511719 -1.230469 5.941406 -2.03125 C 6.21875 -2.523438 6.402344 -2.988281 6.433594 -3.417969 L 6.648438 -5.234375 C 7.113281 -9.484375 7.605469 -13.886719 7.296875 -18.257812 Z M 7.296875 -18.257812 "/></g></g></g><g fill="#ffffff" fill-opacity="1"><g transform="translate(266.359721, 352.521593)"><g><path d="M 13.085938 -22.9375 C 12.929688 -22.96875 12.777344 -22.96875 12.59375 -22.96875 C 12.285156 -22.96875 11.945312 -22.9375 11.605469 -22.875 L 11.300781 -22.84375 C 6.527344 -22.230469 3.386719 -19.550781 1.691406 -14.65625 C 0.675781 -11.730469 1.015625 -8.066406 2.554688 -5.355469 C 3.941406 -2.957031 6.21875 -1.355469 9.113281 -0.769531 L 9.207031 -0.738281 C 9.667969 -0.648438 10.128906 -0.554688 10.589844 -0.492188 C 13.792969 -0.125 16.316406 -1.046875 18.289062 -3.386719 L 18.902344 -4.0625 C 19.394531 -4.648438 19.917969 -5.265625 20.414062 -5.851562 C 21.796875 -7.511719 22.566406 -9.574219 22.8125 -12.375 C 22.414062 -19.335938 18.625 -21.613281 13.085938 -22.9375 Z M 17.210938 -11.882812 C 17.085938 -11.605469 16.964844 -11.328125 16.839844 -11.023438 C 16.53125 -10.34375 16.226562 -9.667969 15.824219 -8.988281 C 15.546875 -8.527344 15.179688 -8.160156 14.839844 -7.789062 C 14.6875 -7.636719 14.53125 -7.480469 14.410156 -7.328125 C 13.546875 -6.402344 12.375 -5.878906 11.113281 -5.878906 C 10.804688 -5.878906 10.53125 -5.910156 10.222656 -5.972656 C 8.589844 -6.28125 7.265625 -7.417969 6.679688 -8.988281 C 5.820312 -11.390625 6.21875 -13.667969 7.914062 -16.195312 C 8.988281 -17.828125 10.191406 -18.101562 11.976562 -17.179688 C 12.652344 -16.839844 13.363281 -16.503906 14.253906 -16.164062 C 16.195312 -15.363281 16.996094 -14.285156 17.242188 -12.070312 L 17.242188 -11.976562 Z M 17.210938 -11.882812 "/></g></g></g><g fill="#ffffff" fill-opacity="1"><g transform="translate(293.453095, 352.521593)"><g><path d="M 23.058594 -22.011719 C 22.8125 -23.183594 21.984375 -24.015625 20.90625 -24.136719 C 19.734375 -24.292969 18.6875 -23.644531 18.257812 -22.566406 C 17.917969 -21.707031 17.703125 -20.78125 17.671875 -19.917969 C 17.550781 -17.550781 17.488281 -15.148438 17.425781 -12.808594 C 17.394531 -11.851562 17.363281 -10.898438 17.332031 -9.945312 C 17.332031 -9.699219 17.304688 -9.453125 17.304688 -9.207031 L 17.273438 -8.652344 L 16.472656 -8.34375 L 14.964844 -10.3125 C 13.945312 -11.605469 12.960938 -12.871094 11.976562 -14.164062 C 11.421875 -14.902344 10.867188 -15.671875 10.28125 -16.410156 C 9.296875 -17.734375 8.28125 -19.089844 7.234375 -20.382812 C 6.804688 -20.964844 6.21875 -21.460938 5.574219 -21.828125 C 5.140625 -22.074219 4.648438 -22.230469 4.1875 -22.230469 C 3.910156 -22.230469 3.632812 -22.167969 3.355469 -22.074219 C 2.617188 -21.828125 2.03125 -21.242188 1.691406 -20.441406 C 1.507812 -19.949219 1.386719 -19.488281 1.355469 -19.058594 C 0.921875 -14.101562 1.078125 -8.804688 1.847656 -2.402344 C 1.910156 -1.941406 2.09375 -1.417969 2.402344 -0.921875 C 2.738281 -0.371094 3.261719 -0.0625 3.757812 -0.09375 C 4.28125 -0.125 4.742188 -0.492188 5.050781 -1.078125 C 5.265625 -1.539062 5.417969 -2.0625 5.417969 -2.492188 C 5.542969 -5.078125 5.632812 -7.695312 5.726562 -10.222656 L 5.789062 -12.253906 C 5.820312 -12.46875 5.789062 -12.714844 5.789062 -12.929688 L 5.789062 -13.945312 L 6.34375 -13.546875 C 6.773438 -13.207031 7.050781 -12.839844 7.265625 -12.5 L 7.417969 -12.316406 C 7.851562 -11.699219 8.28125 -11.054688 8.742188 -10.4375 C 9.789062 -8.929688 10.898438 -7.359375 12.101562 -5.972656 C 13.117188 -4.773438 14.6875 -3.078125 16.53125 -2.03125 C 18.320312 -1.015625 19.859375 -0.800781 20.996094 -1.417969 C 22.136719 -2.0625 22.78125 -3.539062 22.875 -5.632812 C 23.03125 -9.605469 23.089844 -13.640625 23.183594 -17.550781 L 23.214844 -20.074219 C 23.246094 -20.75 23.183594 -21.398438 23.058594 -22.011719 Z M 23.058594 -22.011719 "/></g></g></g></svg>